<?xml version="1.0" encoding="UTF-8"?>
<svg id="_Layer_2" data-name="Layer 2" xmlns="http://www.w3.org/2000/svg" viewBox="0 0 92.22 90.15">
  <defs>
    <style>
      .cls-1, .cls-2, .cls-3 {
        fill: #0f1423;
      }

      .cls-1, .cls-4, .cls-5 {
        stroke-linecap: round;
        stroke-linejoin: round;
      }

      .cls-1, .cls-5 {
        stroke: #0f1423;
      }

      .cls-6 {
        fill: #eaeffc;
      }

      .cls-4 {
        fill: #c6c2d1;
        stroke: #0f1321;
      }

      .cls-5 {
        fill: none;
      }

      .cls-3 {
        stroke: #1d1d1b;
        stroke-miterlimit: 10;
        stroke-width: .75px;
      }
    </style>
  </defs>
  <g id="_Layer_1-2" data-name="Layer 1">
    <g>
      <path class="cls-4" d="M86.72,87.54L29.68,18.61c-.45-.55-1.27-.62-1.81-.17-.55.45-.63,1.27-.17,1.82l57.03,68.93c.22.26.52.42.83.46.34.04.7-.05.99-.29.55-.45.63-1.27.17-1.81Z"/>
      <g>
        <path class="cls-6" d="M42.59,4.67c-3.74,1.51-9.97,4.6-16.81,9.51.03.17.36,1.01,2.89,5.02,3.2-7.44,8.66-11.88,13.92-14.53Z"/>
        <path class="cls-6" d="M28.5,19.34c-2.17-3.44-2.76-4.6-2.9-5.02-1.22.97-9.91,8.03-14.19,14.98,4.25-5.03,10.01-9.56,17.09-9.96Z"/>
        <path class="cls-6" d="M28.96,19.1c14.96-11.43,30.48-14.3,40.9-14.68,7.67-.28,13.77.71,16.95,1.39C74.94,2,61.74.63,61.6.62c-.06,0-6.19-.23-13.27,1.97-6.44,2.01-14.99,6.5-19.38,16.51Z"/>
        <path class="cls-6" d="M4.68,55.47c2.6-9.99,8.81-24.3,23.67-35.91-5.25.35-12.97,3.31-20.6,15.07-4.54,7-6.98,13.99-7.14,14.44.05.41.7,5.94,1.91,21.68.07-3.46.51-8.92,2.16-15.28Z"/>
        <path class="cls-6" d="M69.85,4.64c-10.39.38-25.87,3.24-40.79,14.65,16.83-1.92,32.91,2.05,43.48,5.74,10.23,3.58,17.38,7.57,18.92,8.46-6.19-12.16-2.76-25.58-2.4-26.9-.95-.27-8.56-2.34-19.21-1.95Z"/>
        <path class="cls-6" d="M28.45,19.76C13.67,31.33,7.48,45.57,4.89,55.52c-2.51,9.66-2.2,17.24-2.1,18.84,0,.07.01.13.02.2,10.34-1.59,24.05,6.19,26.08,7.39-.56-1.53-3.19-9.09-4.62-19.58-1.46-10.74-1.9-26.81,4.18-42.61Z"/>
        <path class="cls-6" d="M28.72,19.66c-6.14,15.81-5.69,31.93-4.24,42.68,1.44,10.64,4.13,18.25,4.63,19.61.51-.76,3.03-3.49,15.04-8.92,12.91-5.84,20.99-7.76,22.29-8.05-11.79-12.76-29.04-33.1-37.72-45.31Z"/>
        <path class="cls-6" d="M28.88,19.52c8.68,12.21,25.94,32.56,37.73,45.32.85-1.84,9.61-20.36,24.91-31.08-1.1-.64-8.4-4.82-19.05-8.54-10.58-3.7-26.72-7.68-43.58-5.7Z"/>
      </g>
      <path class="cls-2" d="M51.2,10.94l2.2-1.29c-3.48-4.53-7.3-5.31-8.99-5.9-3.47,1.4-3.04.81-6.7,3.03,3.23-.28,6.32,1.76,7.99,3.62,3.8,4.22-.8,13.63-8.6,19.77-7.8,6.14-19.88,8.99-23.01,4.26-1.47-2.21-1.58-4.72-.29-8.1-2.76,3.36-3.3,4.19-5.76,7.39.2,2.1.25,3.14,4.57,7.99l1.7-1.77c2.35.95,5.28,1.16,8.48.68l-.68,1.88c5.8-.87,12.42-3.78,18.39-8.48,5.96-4.69,10.14-10.27,12.06-15.45l-2.12.31c1.05-2.87,1.34-5.6.75-7.92Z"/>
      <g>
        <path class="cls-5" d="M28.69,19.44C10.18,20.31.5,49.06.5,49.06c0,0,.75,6.03,2.2,25.62,0,0-3.12-32.73,25.99-55.25"/>
        <path class="cls-5" d="M28.69,19.44C57.79-3.08,89.2,6.51,89.2,6.51c0,0-4.25,14.31,2.52,27.25"/>
        <path class="cls-5" d="M28.69,19.44C37.11-.53,61.61.51,61.61.51c0,0,15.03,1.52,27.58,6"/>
        <path class="cls-5" d="M28.69,19.44c-12.04,30.77.4,62.77.4,62.77,0,0,.89-2.65,15.1-9.08,14.21-6.43,22.45-8.08,22.45-8.08-12.61-13.63-29.76-34.04-37.96-45.6"/>
        <path class="cls-5" d="M28.69,19.44c-3.36-5.31-3.01-5.31-3.01-5.31,0,0-10.64,8.29-14.97,16.16"/>
        <path class="cls-5" d="M66.65,65.04s8.8-19.95,25.07-31.28c0,0-30.22-18.25-63.03-14.32"/>
        <path class="cls-5" d="M29.09,82.2s-15.15-9.33-26.39-7.52"/>
        <path class="cls-5" d="M44.69,3.79c-2.65.85-10.13,3.95-19,10.34"/>
      </g>
      <path class="cls-1" d="M28.19,20.34c.23-.08.46-.2.66-.34.2-.14.38-.3.54-.49.16-.19.31-.4.42-.62,0-.01,0-.02.01-.04l-8.27-10c-.45-.55-1.27-.62-1.81-.17-.55.45-.63,1.27-.17,1.82l8.24,9.96c.13-.03.26-.06.39-.11Z"/>
      <path class="cls-3" d="M86.72,87.54l-8.96-10.83c-.07.49-.32.95-.74,1.26-.38.28-.83.39-1.27.36l8.98,10.85c.22.26.52.42.83.46.34.04.7-.05.99-.29.55-.45.63-1.27.17-1.81Z"/>
    </g>
  </g>
</svg>
